<svg width="33" height="33" viewBox="0 0 33 33" fill="none" xmlns="http://www.w3.org/2000/svg">
<path d="M4 12H29L27.6045 27.1831C27.5099 28.2124 26.6465 29 25.6129 29H7.38711C6.35346 29 5.49011 28.2124 5.3955 27.1831L4 12Z" stroke="white" stroke-width="1.5" stroke-linejoin="round"/>
<path d="M10 16V10.8571C10 7.07005 12.9101 4 16.5 4C20.0899 4 23 7.07005 23 10.8571V16" stroke="white" stroke-width="1.5" stroke-linecap="round"/>
<path d="M17.0435 25.1714C15.9517 25.1714 15.0947 24.7419 14.4727 23.8828C13.8548 23.0365 13.5459 21.8791 13.5459 20.4106C13.5459 18.9549 13.8569 17.8018 14.479 16.9512C15.1011 16.0964 15.9559 15.6689 17.0435 15.6689C18.131 15.6689 18.9858 16.0964 19.6079 16.9512C20.2215 17.7933 20.5283 18.9443 20.5283 20.4043C20.5283 21.8727 20.2215 23.0322 19.6079 23.8828C18.9901 24.7419 18.1353 25.1714 17.0435 25.1714ZM17.0435 23.978C17.6951 23.978 18.2008 23.6606 18.5605 23.0259C18.916 22.3953 19.0938 21.5236 19.0938 20.4106C19.0938 19.3104 18.9139 18.445 18.5542 17.8145C18.1903 17.1797 17.6867 16.8623 17.0435 16.8623C16.4002 16.8623 15.8966 17.1818 15.5327 17.8208C15.1688 18.4513 14.9868 19.3146 14.9868 20.4106C14.9868 21.5236 15.1667 22.3932 15.5264 23.0195C15.8861 23.6585 16.3918 23.978 17.0435 23.978Z" fill="white"/>
</svg>
