<svg width="205" height="31" viewBox="0 0 205 31" fill="none" xmlns="http://www.w3.org/2000/svg">
<path d="M11.7617 24.3867C9.40918 24.3867 7.35205 23.8818 5.59033 22.8721C3.83936 21.8516 2.49121 20.439 1.5459 18.6343C0.611328 16.8296 0.144043 14.7725 0.144043 12.4629C0.144043 10.1533 0.611328 8.09082 1.5459 6.27539C2.48047 4.44922 3.83936 3.02051 5.62256 1.98926C7.40576 0.958008 9.52197 0.442383 11.9712 0.442383C13.0776 0.442383 14.2056 0.598145 15.355 0.909668C16.5044 1.21045 17.6968 1.63477 18.9321 2.18262L19.3511 8.16064H19.061C18.5991 6.67822 18.0889 5.4375 17.5303 4.43848C16.9717 3.43945 16.2144 2.63916 15.2583 2.0376C14.3022 1.43604 13.0938 1.13525 11.6328 1.13525C9.84961 1.13525 8.37793 1.65088 7.21777 2.68213C6.06836 3.70264 5.2251 5.06689 4.68799 6.7749C4.16162 8.47217 3.89844 10.3735 3.89844 12.479C3.89844 14.7778 4.20996 16.7651 4.83301 18.4409C5.45605 20.1167 6.40137 21.4111 7.66895 22.3242C8.93652 23.2373 10.5049 23.6938 12.374 23.6938C13.04 23.6938 13.7275 23.5542 14.4365 23.2749C15.1562 22.9849 15.7524 22.6143 16.2251 22.1631C16.6978 21.7012 16.9341 21.2285 16.9341 20.7451V15.3794L13.7114 13.5747V13.3652H20.1084V21.4863C18.8086 22.4639 17.5088 23.1943 16.209 23.6777C14.9199 24.1504 13.4375 24.3867 11.7617 24.3867ZM34.2881 24.3867C32.043 24.3867 30.0503 23.8818 28.3101 22.8721C26.5806 21.8516 25.2324 20.439 24.2656 18.6343C23.3096 16.8296 22.8315 14.7832 22.8315 12.4951C22.8315 10.1748 23.3042 8.10156 24.2495 6.27539C25.1948 4.44922 26.543 3.02051 28.2939 1.98926C30.0449 0.958008 32.0967 0.442383 34.4492 0.442383C35.5449 0.442383 36.6514 0.565918 37.7686 0.812988C38.8857 1.04932 40.1641 1.50586 41.6035 2.18262L42.0386 8.16064H41.7324C41.2598 6.646 40.7441 5.39453 40.1855 4.40625C39.627 3.41797 38.8696 2.62842 37.9136 2.0376C36.9575 1.44678 35.7275 1.15137 34.2236 1.15137C32.5908 1.15137 31.1997 1.63477 30.0503 2.60156C28.9116 3.55762 28.0469 4.88965 27.4561 6.59766C26.876 8.29492 26.5859 10.25 26.5859 12.4629C26.5859 14.7188 26.8921 16.6953 27.5044 18.3926C28.1274 20.0791 29.0298 21.3843 30.2114 22.3081C31.4038 23.2319 32.8271 23.6938 34.4814 23.6938C35.8027 23.6938 36.9199 23.4092 37.833 22.8398C38.7568 22.2598 39.5195 21.4648 40.1211 20.4551C40.7334 19.4346 41.2705 18.1724 41.7324 16.6685H42.0386L41.6035 22.6465C40.1426 23.334 38.8589 23.7959 37.7524 24.0322C36.646 24.2686 35.4912 24.3867 34.2881 24.3867ZM56.0088 24.3867C53.7637 24.3867 51.771 23.8818 50.0308 22.8721C48.3013 21.8516 46.9531 20.439 45.9863 18.6343C45.0303 16.8296 44.5522 14.7832 44.5522 12.4951C44.5522 10.1748 45.0249 8.10156 45.9702 6.27539C46.9155 4.44922 48.2637 3.02051 50.0146 1.98926C51.7656 0.958008 53.8174 0.442383 56.1699 0.442383C57.2656 0.442383 58.3721 0.565918 59.4893 0.812988C60.6064 1.04932 61.8848 1.50586 63.3242 2.18262L63.7593 8.16064H63.4531C62.9805 6.646 62.4648 5.39453 61.9062 4.40625C61.3477 3.41797 60.5903 2.62842 59.6343 2.0376C58.6782 1.44678 57.4482 1.15137 55.9443 1.15137C54.3115 1.15137 52.9204 1.63477 51.771 2.60156C50.6323 3.55762 49.7676 4.88965 49.1768 6.59766C48.5967 8.29492 48.3066 10.25 48.3066 12.4629C48.3066 14.7188 48.6128 16.6953 49.2251 18.3926C49.8481 20.0791 50.7505 21.3843 51.9321 22.3081C53.1245 23.2319 54.5479 23.6938 56.2021 23.6938C57.5234 23.6938 58.6406 23.4092 59.5537 22.8398C60.4775 22.2598 61.2402 21.4648 61.8418 20.4551C62.4541 19.4346 62.9912 18.1724 63.4531 16.6685H63.7593L63.3242 22.6465C61.8633 23.334 60.5796 23.7959 59.4731 24.0322C58.3667 24.2686 57.2119 24.3867 56.0088 24.3867ZM72.541 23.6938L75.4575 22.2114L82.1929 3.21387L80.6299 1.11914V0.812988H85.0771L92.876 22.1953L95.6152 23.6938V24H86.6562V23.6938L89.2505 22.2114L87.188 16.3945H78.2451L76.1987 22.1953L79.5986 23.6938V24H72.541V23.6938ZM86.9302 15.7017L82.7085 3.81006L78.5029 15.7017H86.9302ZM96.4692 23.71L98.9668 22.5659V9.88477L96.7432 8.91797V8.64404L101.932 7.45166L102.125 7.62891V9.99756C102.909 9.20264 103.795 8.57959 104.784 8.12842C105.783 7.67725 106.83 7.45166 107.926 7.45166C108.925 7.45166 109.806 7.66113 110.568 8.08008C111.342 8.48828 111.943 9.06299 112.373 9.8042C112.803 10.5347 113.018 11.3779 113.018 12.334V22.5659L115.531 23.71V24H107.394V23.71L109.875 22.5659V12.6562C109.875 11.5391 109.553 10.6582 108.909 10.0137C108.275 9.36914 107.356 9.04688 106.153 9.04688C105.38 9.04688 104.649 9.18652 103.962 9.46582C103.274 9.73438 102.662 10.1533 102.125 10.7227V22.5659L104.606 23.71V24H96.4692V23.71ZM122.927 24.3867C122.111 24.3867 121.391 24.2202 120.768 23.8872C120.156 23.5435 119.678 23.0439 119.334 22.3887C118.99 21.7334 118.818 20.9438 118.818 20.02V8.40234H116.659V8.19287L119.237 7.30664L121.719 4.26123H121.944V7.88672H127.052V8.40234H121.977V20.1489C121.977 21.019 122.17 21.6689 122.557 22.0986C122.954 22.5176 123.556 22.7271 124.361 22.7271C124.898 22.7271 125.425 22.668 125.94 22.5498C126.456 22.4209 126.918 22.2437 127.326 22.0181L127.52 22.2437C127.015 22.8452 126.359 23.3555 125.554 23.7744C124.748 24.1826 123.873 24.3867 122.927 24.3867ZM132.676 4.26123C132.117 4.26123 131.655 4.08936 131.29 3.74561C130.936 3.40186 130.758 2.96143 130.758 2.42432C130.758 1.88721 130.936 1.44678 131.29 1.10303C131.655 0.748535 132.117 0.571289 132.676 0.571289C133.234 0.571289 133.696 0.748535 134.062 1.10303C134.427 1.45752 134.609 1.89795 134.609 2.42432C134.609 2.96143 134.427 3.40186 134.062 3.74561C133.707 4.08936 133.245 4.26123 132.676 4.26123ZM128.728 23.71L131.226 22.5659V9.88477L129.002 8.93408V8.64404L134.19 7.45166L134.384 7.62891V22.5659L136.897 23.71V24H128.728V23.71ZM147.516 30.4131L150.046 29.269V22.0342C149.315 22.7324 148.515 23.3018 147.645 23.7422C146.786 24.1719 145.808 24.3867 144.712 24.3867C143.294 24.3867 142.081 24.043 141.071 23.3555C140.061 22.6572 139.293 21.7119 138.767 20.5195C138.251 19.3164 137.993 17.9629 137.993 16.459C137.993 14.751 138.337 13.2148 139.024 11.8506C139.712 10.4756 140.695 9.40137 141.973 8.62793C143.262 7.84375 144.766 7.45166 146.485 7.45166C147.366 7.45166 148.236 7.58057 149.095 7.83838C149.955 8.09619 150.723 8.47754 151.399 8.98242L152.705 7.83838H153.188V29.269L155.702 30.4131V30.7031H147.516V30.4131ZM146.356 22.8076C147.076 22.8076 147.731 22.6948 148.322 22.4692C148.913 22.2437 149.487 21.8892 150.046 21.4058V11.3511C149.853 10.2661 149.439 9.44434 148.805 8.88574C148.171 8.31641 147.414 8.03174 146.533 8.03174C145.502 8.03174 144.594 8.34326 143.81 8.96631C143.037 9.57861 142.435 10.4595 142.005 11.6089C141.586 12.7476 141.377 14.085 141.377 15.6211C141.377 17.1357 141.576 18.4302 141.973 19.5044C142.381 20.5786 142.956 21.4004 143.697 21.9697C144.449 22.5283 145.335 22.8076 146.356 22.8076ZM163.774 24.3867C162.883 24.3867 162.061 24.1987 161.309 23.8228C160.568 23.436 159.977 22.8774 159.537 22.147C159.107 21.4058 158.892 20.5303 158.892 19.5205V9.88477L156.668 8.93408V8.64404L161.857 7.45166L162.05 7.62891V18.8115C162.05 20.0361 162.335 21.0083 162.904 21.728C163.474 22.4478 164.312 22.8076 165.418 22.8076C166.234 22.8076 167.045 22.6519 167.851 22.3403C168.657 22.0181 169.301 21.5991 169.785 21.0835V9.88477L167.545 8.93408V8.64404L172.75 7.45166L172.927 7.62891V22.1309L174.699 23.1943V23.3877L170.252 24.3867L169.865 21.7603C169.199 22.4907 168.297 23.1138 167.158 23.6294C166.03 24.1343 164.902 24.3867 163.774 24.3867ZM185.382 22.582C186.371 22.582 187.327 22.4048 188.25 22.0503C189.174 21.6958 189.926 21.2285 190.506 20.6484L190.732 20.8579C190.001 21.9644 189.062 22.8291 187.912 23.4521C186.773 24.0752 185.447 24.3867 183.932 24.3867C182.471 24.3867 181.182 24.0483 180.065 23.3716C178.948 22.6841 178.078 21.728 177.455 20.5034C176.842 19.2788 176.536 17.877 176.536 16.2979C176.536 14.5684 176.869 13.0322 177.535 11.6895C178.201 10.3467 179.12 9.30469 180.291 8.56348C181.461 7.82227 182.788 7.45166 184.271 7.45166C185.656 7.45166 186.859 7.77393 187.88 8.41846C188.9 9.05225 189.674 9.92236 190.2 11.0288C190.737 12.1245 191.006 13.3491 191.006 14.7026H179.872C179.861 14.896 179.855 15.1538 179.855 15.4761C179.855 16.9155 180.065 18.167 180.484 19.2305C180.914 20.2939 181.542 21.1211 182.369 21.7119C183.196 22.292 184.201 22.582 185.382 22.582ZM184.125 8.03174C182.718 8.03174 181.692 8.67627 181.048 9.96533C180.414 11.2437 180.033 12.6992 179.904 14.332L187.767 13.9614C187.767 12.0171 187.45 10.5454 186.816 9.54639C186.193 8.53662 185.296 8.03174 184.125 8.03174ZM198.273 24.3867C197.295 24.3867 196.27 24.2632 195.195 24.0161C194.121 23.769 193.272 23.4844 192.649 23.1621L193.616 19.3271H193.922C194.223 20.1221 194.594 20.9331 195.034 21.7603C195.485 22.5874 195.937 23.2104 196.388 23.6294C197.032 23.7798 197.741 23.855 198.515 23.855C199.739 23.855 200.615 23.5918 201.141 23.0654C201.678 22.5283 201.947 21.8354 201.947 20.9868C201.947 20.396 201.796 19.8911 201.496 19.4722C201.195 19.0532 200.797 18.6934 200.303 18.3926C199.82 18.0918 199.132 17.7266 198.241 17.2969L197.097 16.749C196.248 16.3408 195.523 15.9326 194.921 15.5244C194.32 15.1055 193.82 14.6006 193.423 14.0098C193.025 13.4082 192.827 12.7153 192.827 11.9312C192.827 10.4595 193.391 9.34766 194.519 8.5957C195.646 7.83301 197.134 7.45166 198.982 7.45166C199.723 7.45166 200.54 7.54834 201.431 7.7417C202.333 7.92432 203.107 8.14453 203.751 8.40234L203.107 12.1567H202.833C202.317 11.1685 201.855 10.3413 201.447 9.67529C201.05 8.99854 200.695 8.49365 200.384 8.16064C200.233 8.10693 200.008 8.06396 199.707 8.03174C199.406 7.99951 199.105 7.9834 198.805 7.9834C198.063 7.9834 197.446 8.11768 196.952 8.38623C196.458 8.65479 196.092 9.00391 195.856 9.43359C195.63 9.86328 195.518 10.3359 195.518 10.8516C195.518 11.5283 195.786 12.1299 196.323 12.6562C196.871 13.1719 197.655 13.6821 198.676 14.187L200.013 14.8477C200.948 15.3096 201.737 15.7607 202.382 16.2012C203.037 16.6309 203.574 17.1465 203.993 17.748C204.423 18.3389 204.638 19.0156 204.638 19.7783C204.638 20.7666 204.369 21.6099 203.832 22.3081C203.295 22.9956 202.548 23.5166 201.592 23.8711C200.636 24.2148 199.53 24.3867 198.273 24.3867Z" fill="#505050"/>
</svg>
