<svg width="25" height="25" viewBox="0 0 25 25" fill="none" xmlns="http://www.w3.org/2000/svg">
<g clip-path="url(#clip0_40_2101)">
<path d="M11.9163 8.34326C9.38666 8.34326 7.34627 10.3841 7.34627 12.9143C7.34627 15.4445 9.38666 17.4853 11.9163 17.4853C14.4459 17.4853 16.4863 15.4445 16.4863 12.9143C16.4863 10.3841 14.4459 8.34326 11.9163 8.34326ZM11.9163 15.886C10.2816 15.886 8.94517 14.5533 8.94517 12.9143C8.94517 11.2752 10.2776 9.94252 11.9163 9.94252C13.5549 9.94252 14.8874 11.2752 14.8874 12.9143C14.8874 14.5533 13.551 15.886 11.9163 15.886ZM17.7391 8.15628C17.7391 8.74905 17.2619 9.22246 16.6732 9.22246C16.0806 9.22246 15.6073 8.74507 15.6073 8.15628C15.6073 7.5675 16.0846 7.09011 16.6732 7.09011C17.2619 7.09011 17.7391 7.5675 17.7391 8.15628ZM20.7659 9.23837C20.6983 7.81018 20.3722 6.54509 19.3261 5.50279C18.284 4.46048 17.0192 4.13427 15.5914 4.06266C14.1197 3.97911 9.70883 3.97911 8.2372 4.06266C6.8133 4.13029 5.5485 4.45651 4.50245 5.49881C3.4564 6.54111 3.13424 7.8062 3.06264 9.23439C2.97912 10.7063 2.97912 15.1182 3.06264 16.5902C3.13026 18.0184 3.4564 19.2835 4.50245 20.3258C5.5485 21.3681 6.80933 21.6943 8.2372 21.7659C9.70883 21.8494 14.1197 21.8494 15.5914 21.7659C17.0192 21.6983 18.284 21.3721 19.3261 20.3258C20.3682 19.2835 20.6943 18.0184 20.7659 16.5902C20.8494 15.1182 20.8494 10.7103 20.7659 9.23837ZM18.8647 18.1696C18.5545 18.9493 17.9539 19.55 17.1704 19.8643C15.9971 20.3298 13.2129 20.2223 11.9163 20.2223C10.6196 20.2223 7.83151 20.3258 6.66216 19.8643C5.8826 19.554 5.28202 18.9533 4.9678 18.1696C4.50245 16.996 4.60984 14.2112 4.60984 12.9143C4.60984 11.6174 4.50643 8.82861 4.9678 7.659C5.27804 6.87926 5.87862 6.27855 6.66216 5.96426C7.83549 5.49881 10.6196 5.60622 11.9163 5.60622C13.2129 5.60622 16.001 5.50279 17.1704 5.96426C17.9499 6.27457 18.5505 6.87529 18.8647 7.659C19.3301 8.83259 19.2227 11.6174 19.2227 12.9143C19.2227 14.2112 19.3301 17 18.8647 18.1696Z" fill="#626262"/>
</g>
<defs>
<clipPath id="clip0_40_2101">
<rect width="17.8286" height="17.8286" fill="white" transform="translate(3 4)"/>
</clipPath>
</defs>
</svg>
