<svg width="56" height="29" viewBox="0 0 56 29" fill="none" xmlns="http://www.w3.org/2000/svg">
<path d="M21.9434 3.83008H35.5724V25.8972H21.9434V3.83008Z" fill="#FF5F00"/>
<path d="M23.347 14.8654C23.3454 12.7405 23.8313 10.6431 24.768 8.73189C25.7047 6.82066 27.0677 5.1457 28.7538 3.83377C26.6655 2.20679 24.1575 1.19506 21.5166 0.914224C18.8757 0.633387 16.2083 1.09477 13.8194 2.24564C11.4304 3.39651 9.41633 5.19044 8.00721 7.42239C6.59809 9.65434 5.85083 12.2343 5.85083 14.8673C5.85083 17.5004 6.59809 20.0803 8.00721 22.3122C9.41633 24.5442 11.4304 26.3381 13.8194 27.489C16.2083 28.6399 18.8757 29.1012 21.5166 28.8204C24.1575 28.5396 26.6655 27.5278 28.7538 25.9009C27.0672 24.5885 25.7039 22.9129 24.7671 21.001C23.8304 19.089 23.3448 16.9909 23.347 14.8653V14.8654Z" fill="#EB001B"/>
<path d="M50.3062 23.5622V23.1101H50.5028V23.0165H50.0349V23.1101H50.2197V23.5623L50.3062 23.5622ZM51.2145 23.5622V23.0166H51.073L50.9078 23.4063L50.7426 23.0165H50.6011V23.5622H50.7034V23.149L50.8567 23.5038H50.9629L51.1163 23.149V23.5622H51.2145Z" fill="#F79E1B"/>
<path d="M51.659 14.8653C51.659 17.4986 50.9115 20.0787 49.5022 22.3107C48.0928 24.5428 46.0784 26.3366 43.6891 27.4874C41.2999 28.6381 38.6323 29.0991 35.9912 28.8179C33.3501 28.5366 30.8421 27.5244 28.7539 25.8969C30.4394 24.5838 31.802 22.9084 32.7389 20.9971C33.6759 19.0857 34.1627 16.9884 34.1627 14.8634C34.1627 12.7383 33.6759 10.641 32.7389 8.72965C31.802 6.81833 30.4394 5.14291 28.7539 3.82981C30.8421 2.20231 33.3501 1.19008 35.9912 0.908831C38.6323 0.627585 41.2999 1.08867 43.6891 2.23938C46.0784 3.3901 48.0928 5.184 49.5022 7.41604C50.9116 9.64808 51.659 12.2282 51.659 14.8614V14.8653Z" fill="#F79E1B"/>
</svg>
