<svg width="25" height="25" viewBox="0 0 25 25" fill="none" xmlns="http://www.w3.org/2000/svg">
<path fill-rule="evenodd" clip-rule="evenodd" d="M12.606 1C6.2198 1 3 5.57851 3 9.3965C3 11.7081 3.87534 13.7651 5.75252 14.5308C6.06039 14.6566 6.33607 14.5352 6.42529 14.1944C6.48745 13.9582 6.63443 13.3629 6.69952 13.115C6.78946 12.7779 6.75436 12.6602 6.50573 12.3662C5.96459 11.7278 5.6187 10.9015 5.6187 9.73069C5.6187 6.33319 8.16061 3.29255 12.2367 3.29255C15.8463 3.29255 17.8295 5.49879 17.8295 8.44364C17.8295 12.3194 16.114 15.5904 13.5684 15.5904C12.1621 15.5904 11.1098 14.4269 11.447 13.001C11.8506 11.2986 12.6338 9.46013 12.6338 8.23159C12.6338 7.13175 12.0429 6.21399 10.821 6.21399C9.3833 6.21399 8.22862 7.70067 8.22862 9.69266C8.22862 10.9614 8.65714 11.8199 8.65714 11.8199C8.65714 11.8199 7.18582 18.0526 6.92841 19.1444C6.41505 21.3185 6.85163 23.9832 6.88819 24.2524C6.91013 24.4118 7.11488 24.4498 7.20775 24.3284C7.34011 24.1558 9.05203 22.0417 9.63412 19.9298C9.79866 19.3323 10.5797 16.2354 10.5797 16.2354C11.0462 17.1261 12.4115 17.9107 13.8631 17.9107C18.1842 17.9107 21.1151 13.9714 21.1151 8.69814C21.1151 4.71269 17.7388 1 12.606 1Z" fill="#626262"/>
</svg>
