<svg width="25" height="25" viewBox="0 0 25 25" fill="none" xmlns="http://www.w3.org/2000/svg">
<path d="M19.9955 8.4432C20.0082 8.63819 20.0082 8.83322 20.0082 9.02821C20.0082 14.9757 15.8721 21.8286 8.31242 21.8286C5.98343 21.8286 3.81992 21.0903 2 19.8089C2.3309 19.8507 2.64904 19.8646 2.99268 19.8646C4.91437 19.8646 6.6834 19.1543 8.09606 17.9425C6.28887 17.9007 4.7744 16.6054 4.2526 14.8225C4.50715 14.8643 4.76167 14.8921 5.02895 14.8921C5.39801 14.8921 5.76711 14.8364 6.11071 14.7389C4.22717 14.321 2.81447 12.5103 2.81447 10.3236V10.2679C3.3617 10.6022 3.99808 10.8111 4.67255 10.8389C3.56532 10.031 2.83993 8.65212 2.83993 7.09211C2.83993 6.25641 3.04352 5.49034 3.39989 4.82176C5.42344 7.55176 8.46512 9.33459 11.8758 9.52962C11.8122 9.19533 11.774 8.84715 11.774 8.49893C11.774 6.01962 13.6067 4 15.8847 4C17.0683 4 18.1373 4.54321 18.8882 5.42071C19.8172 5.22572 20.7081 4.84963 21.4972 4.33429C21.1917 5.37895 20.5427 6.25645 19.69 6.81356C20.5172 6.71611 21.319 6.46534 22.0571 6.11716C21.4973 7.00855 20.7973 7.80245 19.9955 8.4432Z" fill="#626262"/>
</svg>
