<svg width="56" height="29" viewBox="0 0 56 29" fill="none" xmlns="http://www.w3.org/2000/svg">
<mask id="mask0_40_2091" style="mask-type:luminance" maskUnits="userSpaceOnUse" x="2" y="6" width="53" height="18">
<path d="M29.3594 11.9422C29.3298 14.2574 31.4407 15.5495 33.031 16.3176C34.6649 17.1058 35.2137 17.6112 35.2074 18.316C35.195 19.3948 33.9041 19.8708 32.6958 19.8894C30.5879 19.9218 29.3625 19.3252 28.3881 18.874L27.6288 22.3962C28.6063 22.8429 30.4164 23.2324 32.2935 23.2494C36.6995 23.2494 39.5822 21.0934 39.5978 17.7503C39.6149 13.5078 33.678 13.2729 33.7185 11.3765C33.7326 10.8016 34.286 10.188 35.499 10.0319C36.0992 9.95307 37.7565 9.89279 39.6352 10.7506L40.3726 7.34264C39.3624 6.9779 38.0637 6.6286 36.4469 6.6286C32.2998 6.6286 29.3828 8.814 29.3594 11.9422ZM47.4586 6.92226C46.6541 6.92226 45.9759 7.38747 45.6735 8.10151L39.3795 22.999H43.7823L44.6585 20.5988H50.0388L50.5471 22.999H54.4276L51.0413 6.92226H47.4586ZM48.0744 11.2652L49.3451 17.3021H45.8652L48.0744 11.2652ZM24.0211 6.92226L20.5506 22.999H24.7461L28.215 6.92226H24.0211ZM17.8145 6.92226L13.4475 17.8647L11.6811 8.56053C11.4738 7.52193 10.6553 6.92226 9.74633 6.92226H2.60736L2.50757 7.38901C3.97309 7.7043 5.63817 8.21279 6.64689 8.75682C7.26428 9.08911 7.44045 9.37967 7.64313 10.1694L10.9889 22.999H15.4229L22.2204 6.92226H17.8145Z" fill="white"/>
</mask>
<g mask="url(#mask0_40_2091)">
<path d="M-2.92944 8.6138L48.2272 -10.0626L59.8651 21.2651L8.70899 39.9415" fill="url(#paint0_linear_40_2091)"/>
</g>
<defs>
<linearGradient id="paint0_linear_40_2091" x1="7.21069" y1="22.7444" x2="50.8765" y2="6.52226" gradientUnits="userSpaceOnUse">
<stop stop-color="#222357"/>
<stop offset="1" stop-color="#254AA5"/>
</linearGradient>
</defs>
</svg>
